<svg id="Layer_1" enable-background="new 0 0 512 512" height="512" viewBox="0 0 512 512" width="512" xmlns="http://www.w3.org/2000/svg"><path d="m437.02 74.98c-48.353-48.351-112.64-74.98-181.02-74.98-59.782 0-117.961 21.055-163.82 59.287-7.448 6.21 2.156 17.73 9.605 11.521 43.169-35.988 97.936-55.808 154.215-55.808 61.866 0 120.166 23.165 165.019 65.374l-62.486 62.486 2.792-11.116c14.448-57.532-77.69-72.987-84.177-15.155l-10.971 97.802c-6.73-.799-13.633-.834-20.365-.105l-10.96-97.697c-6.472-57.704-98.655-42.489-84.177 15.155l30.551 121.638c-9.548 14.191-15.126 31.253-15.126 49.592 0 9.519 1.529 18.915 4.467 27.852l-90.194 90.194c-42.208-44.854-65.373-103.153-65.373-165.02 0-58.229 21.053-114.446 59.28-158.293 6.372-7.31-4.933-17.166-11.307-9.857-40.609 46.579-62.973 106.296-62.973 168.15 0 68.38 26.629 132.667 74.98 181.02 48.353 48.351 112.64 74.98 181.02 74.98s132.667-26.629 181.02-74.98c48.351-48.353 74.98-112.64 74.98-181.02s-26.629-132.667-74.98-181.02zm-144.966 43.281c4.25-37.892 64.025-27.203 54.722 9.829l-28.076 111.782c-3.426-3.413-7.13-6.548-11.07-9.374l9.288-51.365c.737-4.076-1.97-7.978-6.045-8.715-4.079-.736-7.978 1.969-8.715 6.046l-8.301 45.909c-4.144-1.969-8.464-3.626-12.927-4.947zm-126.83 9.829c-1.858-7.397-.548-15.101 3.687-21.691 13.653-21.247 48.196-13.456 51.036 11.863l11.094 98.897c-4.476 1.273-8.807 2.891-12.969 4.815l-8.229-45.51c-.737-4.076-4.637-6.782-8.715-6.046-4.076.737-6.783 4.639-6.046 8.715l9.183 50.783c-3.963 2.776-7.69 5.865-11.147 9.23zm90.312 100.667c41.044 0 74.436 33.293 74.436 74.217 0 10.137-2.078 20.122-6.052 29.338-10.689-8.694-24.582-13.174-38.337-12.514-6.016-21.312-52.52-21.192-59.027-.313-13.22-1.307-27.603 3.51-39.309 13.055-4.039-9.277-6.147-19.337-6.147-29.566.001-40.924 33.392-74.217 74.436-74.217zm-13.755 97.956c-5.884-10.166 34.423-10.339 28.437 0l-10.553 18.229c-1.619 2.798-5.711 2.796-7.331 0zm6.719 33.846v49.597c-7.36 5.06-13.861 7.744-20.246 8.382-7.933.793-15.577-.58-24.05-4.321-23.66-11.944-28.775-42.268-14.056-63.238 13.153-10.848 21.159-17.514 39.142-15.904l10.063 17.383c2.156 3.723 5.366 6.514 9.147 8.101zm177.912 65.854c-45.518 45.519-106.039 70.587-170.412 70.587-61.867 0-120.166-23.165-165.019-65.374l83.019-83.019c-5.581 10.291-8.319 22.026-7.478 32.969.008.101.018.201.029.301 2.406 20.449 13.739 37.154 31.095 45.832 18.115 9.057 38.898 7.563 55.909-2.956 1.535.522 3.076.553 4.622.093 16.168 9.922 37.254 11.298 54.964 3.015 8.785-4.108 2.43-17.693-6.355-13.587-13.897 6.5-31.207 4.818-43.285-3.906v-49.808c3.781-1.587 6.992-4.378 9.147-8.102l10.054-17.368c5.52-.743 11.201-.393 16.583 1.047 19.207 5.138 32.522 23.963 30.973 43.79-.733 9.395 14.184 11.016 14.955 1.169 1.045-13.367-2.892-26.397-10.311-36.984 6.594-12.652 10.069-26.769 10.069-41.137 0-17.902-5.318-34.587-14.454-48.573l20.899-83.211 80.209-80.208c42.21 44.851 65.375 103.15 65.375 165.017 0 64.374-25.068 124.894-70.588 170.413z"/></svg>