<?xml version="1.0" encoding="UTF-8"?>
<svg xmlns="http://www.w3.org/2000/svg" id="Icons" viewBox="0 0 74 74" width="512" height="512"><path d="M37,70.64a1,1,0,0,1-.558-.17A125.879,125.879,0,0,1,19.287,55.988C7.816,44.332,2,33.367,2,23.4A20.026,20.026,0,0,1,37,10.089,20.026,20.026,0,0,1,72,23.4c0,9.967-5.816,20.932-17.287,32.588A125.879,125.879,0,0,1,37.558,70.47,1,1,0,0,1,37,70.64ZM22.04,5.36A18.061,18.061,0,0,0,4,23.4C4,44.361,32.617,65.334,37,68.423c4.383-3.09,33-24.072,33-45.023A18.025,18.025,0,0,0,37.787,12.267a1.036,1.036,0,0,1-1.574,0A17.918,17.918,0,0,0,22.04,5.36Z"/><path d="M40.136,48.5H33.864a1,1,0,0,1-1-1V40.136H25.5a1,1,0,0,1-1-1V32.864a1,1,0,0,1,1-1h7.364V24.5a1,1,0,0,1,1-1h6.272a1,1,0,0,1,1,1v7.364H48.5a1,1,0,0,1,1,1v6.272a1,1,0,0,1-1,1H41.136V47.5A1,1,0,0,1,40.136,48.5Zm-5.272-2h4.272V39.136a1,1,0,0,1,1-1H47.5V33.864H40.136a1,1,0,0,1-1-1V25.5H34.864v7.364a1,1,0,0,1-1,1H26.5v4.272h7.364a1,1,0,0,1,1,1Z"/></svg>
