<svg id="Capa_1" enable-background="new 0 0 512 512" height="512" viewBox="0 0 512 512" width="512" xmlns="http://www.w3.org/2000/svg"><g><path d="m464.024 197.367c13.697-13.698 13.697-35.986-.001-49.685l-137.395-137.385c-6.634-6.64-15.457-10.297-24.844-10.297-9.388 0-18.211 3.657-24.843 10.295l-137.945 137.945h-46.443c-8.691 0-17.01 1.977-24.724 5.876-3.696 1.869-5.179 6.38-3.31 10.077 1.32 2.612 3.96 4.118 6.699 4.118 1.138 0 2.293-.26 3.378-.808 5.596-2.829 11.638-4.263 17.956-4.263h31.443l-63.508 63.51c-5.051-6.797-7.784-14.982-7.784-23.669 0-6.311 1.435-12.35 4.264-17.947 1.868-3.697.385-8.208-3.312-10.077s-8.208-.386-10.077 3.311c-3.844 7.606-5.875 16.152-5.875 24.713v254.07c0 14.649 5.706 28.423 16.066 38.783 10.361 10.36 24.134 16.066 38.784 16.066h267.03c36.47 0 66.14-29.67 66.14-66.14v-6.296c17.588-1.314 31.5-16.035 31.5-33.954v-105.87c0-9.083-3.541-17.635-9.977-24.084-5.829-5.828-13.399-9.273-21.533-9.872v-30.106zm-74.13 52.917c-9.332-4.82-19.694-7.354-30.311-7.354h-20.967c4.234-29.504-5.471-58.989-26.861-80.378-36.982-36.971-97.156-36.971-134.139.001-21.388 21.389-31.093 50.874-26.86 80.377h-58.203c-2.496 0-4.974-.231-7.382-.691-4.864-.916-9.474-2.735-13.637-5.322l174.614-174.616c16.03 13.481 35.828 20.243 55.637 20.243s39.607-6.762 55.637-20.243l54.585 54.581c-13.117 15.565-20.28 35.048-20.281 55.64-.001 20.595 7.162 40.08 20.281 55.647zm-100.34-7.354c-.243-8.861-4.152-17.531-10.969-23.335-8.641-7.358-20.266-8.662-31.094-3.486-7.907 3.776-16.882 7.746-23.474 8.549-2.591.32-5.596-1.438-7.658-4.458-1.634-2.393-2.813-5.929-1.976-9.488l7.115 7.115c1.465 1.465 3.384 2.197 5.304 2.197 1.919 0 3.839-.732 5.304-2.197 2.929-2.929 2.929-7.678 0-10.606l-7.877-7.877c2.761-1.377 5.093-1.713 5.866-1.787 4.124-.393 7.148-4.054 6.755-8.177-.393-4.124-4.065-7.144-8.177-6.755-1.847.176-8.517 1.122-15.347 5.816l-3.46-3.46c-2.93-2.929-7.678-2.93-10.607 0-2.929 2.929-2.929 7.678 0 10.606l3.828 3.828c-.329.545-.652 1.104-.964 1.685-4.605 8.583-3.896 19.144 1.852 27.56 5.264 7.707 13.634 11.884 21.85 10.89 7.052-.859 15.202-3.729 28.135-9.905 7.034-3.361 11.988-1.109 14.903 1.373 3.42 2.913 5.454 7.375 5.688 11.915h-6.726l-6.831-6.832c-2.929-2.929-7.678-2.93-10.606 0-1.856 1.855-2.532 4.44-2.037 6.832h-82.401c-4.345-25.538 3.764-51.257 22.277-69.77 31.132-31.125 81.792-31.125 112.926-.001 18.513 18.513 26.623 44.233 22.278 69.771h-33.877zm163.863-56.169-30.763 30.763c-10.315-12.698-15.929-28.416-15.928-45 .001-16.583 5.614-32.299 15.928-44.995l30.763 30.761c7.849 7.849 7.849 20.621 0 28.471zm-165.866-165.862c3.801-3.804 8.855-5.899 14.233-5.899 5.377 0 10.432 2.095 14.235 5.902l30.761 30.758c-26.138 21.184-63.852 21.183-89.99 0zm135.612 403.771h-43.521c-2.137 0-4.256-.146-6.298-.436-4.107-.583-7.897 2.272-8.478 6.375-.581 4.101 2.273 7.896 6.374 8.477 2.736.388 5.563.584 8.401.584h31.08v6.19c0 28.199-22.941 51.14-51.14 51.14h-267.028c-10.643 0-20.649-4.146-28.177-11.673-7.527-7.527-11.673-17.534-11.673-28.177v-216.395c.766.811 1.55 1.607 2.368 2.374 7.631 7.134 17.079 11.924 27.306 13.849 3.315.632 6.738.953 10.176.953h267.03c9.797 0 19.312 2.776 27.517 8.027 14.786 9.463 23.613 25.581 23.613 43.113 0 .065.008.128.01.193v9.547h-31.069c-33.327 0-60.44 27.109-60.44 60.43 0 16.133 6.284 31.309 17.698 42.734 1.105 1.105 2.239 2.153 3.369 3.115 1.411 1.202 3.14 1.79 4.858 1.79 2.122 0 4.23-.896 5.714-2.638 2.686-3.153 2.307-7.887-.848-10.572-.827-.705-1.665-1.48-2.486-2.301-8.58-8.589-13.306-20-13.306-32.129 0-25.05 20.385-45.43 45.44-45.43h43.51c7.056 0 13.617-2.158 19.06-5.848v77.647c-.001 10.511-8.55 19.061-19.06 19.061zm13.472-138.412c3.604 3.611 5.588 8.399 5.588 13.482 0 9.645-7.199 17.62-16.5 18.877l-.01-37.748c4.121.549 7.935 2.402 10.922 5.389zm-25.922-19.179c-2.444-2.969-5.17-5.73-8.138-8.264l8.138-8.138z"/><path d="m357.487 116.824c-9.473-9.471-24.883-9.47-34.355 0-9.471 9.472-9.471 24.884 0 34.355 4.588 4.588 10.688 7.115 17.178 7.115s12.59-2.527 17.179-7.115c9.47-9.471 9.47-24.882-.002-34.355zm-10.605 23.749c-1.756 1.755-4.09 2.722-6.572 2.722s-4.815-.966-6.57-2.722c-3.623-3.623-3.623-9.519 0-13.142 1.812-1.812 4.19-2.717 6.57-2.717s4.76.906 6.571 2.717c3.623 3.624 3.623 9.519.001 13.142z"/><path d="m379.645 350.065c-16.085 0-29.172 13.086-29.172 29.172 0 16.085 13.087 29.171 29.172 29.171s29.171-13.086 29.171-29.171-13.086-29.172-29.171-29.172zm0 43.344c-7.814 0-14.172-6.357-14.172-14.171s6.357-14.172 14.172-14.172c7.813 0 14.171 6.357 14.171 14.172 0 7.813-6.357 14.171-14.171 14.171z"/></g></svg>